<svg width="60" height="60" viewBox="0 0 60 60" fill="none" xmlns="http://www.w3.org/2000/svg">
<path d="M7.5 30H30V33.75H7.5V30Z" fill="#81B751"/>
<path d="M3.75 20.625H22.5V24.375H3.75V20.625Z" fill="#81B751"/>
<path d="M56.0989 31.1363L50.4739 18.0113C50.3295 17.6739 50.0893 17.3864 49.7829 17.1844C49.4766 16.9824 49.1177 16.8748 48.7508 16.875H43.1258V13.125C43.1258 12.6277 42.9282 12.1508 42.5766 11.7992C42.2249 11.4475 41.748 11.25 41.2508 11.25H11.2507V15H39.3758V38.5425C38.5214 39.0386 37.7737 39.699 37.1757 40.4855C36.5778 41.272 36.1415 42.1691 35.892 43.125H24.1095C23.6531 41.3575 22.5678 39.8171 21.057 38.7926C19.5461 37.7681 17.7135 37.3298 15.9026 37.5598C14.0917 37.7898 12.4269 38.6724 11.2201 40.0421C10.0134 41.4118 9.34766 43.1745 9.34766 45C9.34766 46.8255 10.0134 48.5882 11.2201 49.9579C12.4269 51.3276 14.0917 52.2102 15.9026 52.4402C17.7135 52.6702 19.5461 52.2319 21.057 51.2074C22.5678 50.1829 23.6531 48.6425 24.1095 46.875H35.892C36.2999 48.4842 37.2327 49.9114 38.5428 50.9309C39.853 51.9504 41.4657 52.504 43.1258 52.504C44.7858 52.504 46.3985 51.9504 47.7087 50.9309C49.0188 49.9114 49.9516 48.4842 50.3595 46.875H54.3758C54.873 46.875 55.3499 46.6775 55.7016 46.3258C56.0532 45.9742 56.2508 45.4973 56.2508 45V31.875C56.2508 31.621 56.1992 31.3696 56.0989 31.1363ZM16.8757 48.75C16.1341 48.75 15.409 48.5301 14.7924 48.118C14.1757 47.706 13.695 47.1203 13.4112 46.4351C13.1274 45.7498 13.0531 44.9958 13.1978 44.2684C13.3425 43.541 13.6997 42.8728 14.2241 42.3484C14.7485 41.8239 15.4167 41.4667 16.1442 41.3221C16.8716 41.1774 17.6256 41.2516 18.3108 41.5355C18.996 41.8193 19.5817 42.2999 19.9938 42.9166C20.4058 43.5333 20.6257 44.2583 20.6257 45C20.6248 45.9943 20.2293 46.9475 19.5263 47.6506C18.8233 48.3536 17.87 48.749 16.8757 48.75ZM43.1258 20.625H47.5133L51.5332 30H43.1258V20.625ZM43.1258 48.75C42.3841 48.75 41.659 48.5301 41.0424 48.118C40.4257 47.706 39.945 47.1203 39.6612 46.4351C39.3774 45.7498 39.3031 44.9958 39.4478 44.2684C39.5925 43.541 39.9497 42.8728 40.4741 42.3484C40.9985 41.8239 41.6667 41.4667 42.3942 41.3221C43.1216 41.1774 43.8756 41.2516 44.5608 41.5355C45.246 41.8193 45.8317 42.2999 46.2438 42.9166C46.6558 43.5333 46.8758 44.2583 46.8758 45C46.8748 45.9943 46.4794 46.9475 45.7763 47.6506C45.0733 48.3536 44.12 48.749 43.1258 48.75ZM52.5008 43.125H50.3595C49.9465 41.5189 49.0122 40.0953 47.7031 39.0774C46.394 38.0594 44.7841 37.5046 43.1258 37.5V33.75H52.5008V43.125Z" fill="#81B751"/>
</svg>
