<svg width="16" height="16" viewBox="0 0 16 16" fill="none" xmlns="http://www.w3.org/2000/svg">
<g clip-path="url(#clip0_1225_1)">
<path d="M8.23943 0.0666132C8.09112 -0.0221992 7.90709 -0.0221992 7.75878 0.0665819C7.71025 0.0954881 6.86425 0.641768 6.07812 1.45455C6.62619 1.71817 7.33375 2.12702 7.99962 2.67726C8.66515 2.1272 9.37246 1.71836 9.92036 1.4548C9.13409 0.6418 8.28796 0.0954881 8.23943 0.0666132Z" fill="#81B751"/>
<path d="M11.6542 2.0881C11.5283 1.94485 11.3274 1.89129 11.1497 1.95307C11.0869 1.97457 9.96383 2.36604 8.89258 3.15879C9.21261 3.38497 10.1255 4.07644 10.9212 5.10275C11.8179 4.6745 12.6455 4.46725 13.0585 4.3836C12.5279 3.10022 11.7007 2.14141 11.6542 2.0881Z" fill="#81B751"/>
<path d="M4.85018 1.95312C4.67303 1.89272 4.47162 1.94534 4.34575 2.08862C4.29922 2.14162 3.472 3.10075 2.94141 4.38415C3.35872 4.46884 4.18465 4.67665 5.07759 5.10284C5.87399 4.07575 6.78765 3.38418 7.10699 3.15847C6.0359 2.36603 4.91309 1.97462 4.85018 1.95312Z" fill="#81B751"/>
<path d="M8.26206 3.86113C8.10368 3.75495 7.89768 3.75495 7.73928 3.86113C7.68559 3.89713 6.7315 4.54738 5.91016 5.56288C6.30687 5.81501 6.69294 6.11701 7.04403 6.47579C7.36447 6.26435 7.58465 6.12519 8.00068 6.12519C8.41534 6.12516 8.63877 6.26547 8.95771 6.47588C9.3088 6.11704 9.69483 5.81504 10.0913 5.56294C9.26996 4.54748 8.31574 3.89713 8.26206 3.86113Z" fill="#81B751"/>
<path d="M13.9569 5.55938C13.8772 5.35381 13.6648 5.2325 13.4474 5.265C13.3382 5.28222 11.1652 5.64169 9.71875 7.03984C10.16 7.39581 10.6679 7.86999 11.1183 8.44474C12.1683 8.05937 13.2606 7.78809 14.3748 7.64762L14.4118 7.64299C14.3069 6.49853 13.9771 5.61128 13.9569 5.55938Z" fill="#81B751"/>
<path d="M2.55242 5.26499C2.33589 5.23252 2.12258 5.35384 2.04292 5.55937C2.02273 5.61133 1.69267 6.49914 1.58789 7.64414L1.62864 7.64808C2.74111 7.78833 3.83239 8.05942 4.88176 8.44464C5.33204 7.87005 5.83985 7.39589 6.28135 7.0398C4.83498 5.64174 2.66164 5.28221 2.55242 5.26499Z" fill="#81B751"/>
<path d="M8.24056 7.12887C8.09225 7.04005 7.90821 7.04005 7.7599 7.12887C7.69915 7.1649 6.62365 7.81733 5.76953 8.82567C6.54165 9.16733 7.295 9.5522 8.00025 10.0214C8.70537 9.5522 9.4588 9.16736 10.2311 8.82571C9.37693 7.81724 8.30134 7.16487 8.24056 7.12887Z" fill="#81B751"/>
<path d="M10.304 14.6772C10.0417 13.3827 8.58285 12.24 8.0001 11.8408C7.40867 12.2455 5.91685 13.4142 5.68567 14.7312C5.63004 15.0491 5.66039 15.3546 5.76332 15.6539C6.46695 15.8751 7.21748 16.0002 8.0001 16.0002C8.78088 16.0002 9.52979 15.8758 10.2321 15.6556C10.3418 15.3386 10.3727 15.0152 10.304 14.6772Z" fill="#81B751"/>
<path d="M1.50764 8.57776C1.38082 8.56126 1.24992 8.59926 1.15057 8.68166C1.05079 8.7636 0.98945 8.88354 0.9812 9.01263C0.812981 11.676 2.36442 14.076 4.72838 15.2415C4.71413 15.0197 4.72254 14.7949 4.76272 14.5667C5.09329 12.6922 7.20206 11.2316 7.66703 10.9367C5.83428 9.67263 3.72288 8.85704 1.50764 8.57776Z" fill="#81B751"/>
<path d="M15.0197 9.01263C15.0115 8.88354 14.9501 8.7636 14.8503 8.68166C14.751 8.59926 14.6224 8.56126 14.4933 8.57776C12.2784 8.85704 10.1667 9.67257 8.33398 10.9366C8.79276 11.2274 10.8494 12.6525 11.2231 14.488C11.2754 14.7446 11.2809 14.9962 11.2644 15.2452C13.632 14.0814 15.1882 11.68 15.0197 9.01263Z" fill="#81B751"/>
</g>
<defs>
<clipPath id="clip0_1225_1">
<rect width="16" height="16" fill="white"/>
</clipPath>
</defs>
</svg>
