<svg width="14" height="14" viewBox="0 0 14 14" fill="#81B751" xmlns="http://www.w3.org/2000/svg">
<path d="M7 0.583252C8.39239 0.583252 9.72774 1.13638 10.7123 2.12094C11.6969 3.10551 12.25 4.44087 12.25 5.83325C12.25 8.00675 10.5933 10.2841 7.35 12.7166C7.24903 12.7923 7.12622 12.8333 7 12.8333C6.87378 12.8333 6.75097 12.7923 6.65 12.7166C3.40667 10.2841 1.75 8.00675 1.75 5.83325C1.75 4.44087 2.30312 3.10551 3.28769 2.12094C4.27226 1.13638 5.60761 0.583252 7 0.583252ZM7 4.08325C6.53587 4.08325 6.09075 4.26763 5.76256 4.59582C5.43437 4.924 5.25 5.36912 5.25 5.83325C5.25 6.29738 5.43437 6.7425 5.76256 7.07069C6.09075 7.39888 6.53587 7.58325 7 7.58325C7.46413 7.58325 7.90925 7.39888 8.23744 7.07069C8.56563 6.7425 8.75 6.29738 8.75 5.83325C8.75 5.36912 8.56563 4.924 8.23744 4.59582C7.90925 4.26763 7.46413 4.08325 7 4.08325Z" fill="#81B751"/>
</svg>
