<svg width="24" height="24" viewBox="0 0 24 24" fill="none" xmlns="http://www.w3.org/2000/svg">
<path d="M19.4214 12.6495L11.5088 21L3.59622 12.6495C3.07432 12.1083 2.66322 11.4578 2.38882 10.739C2.11442 10.0202 1.98265 9.2487 2.00183 8.47298C2.021 7.69726 2.1907 6.93418 2.50024 6.23178C2.80977 5.52938 3.25243 4.90289 3.80035 4.39174C4.34827 3.8806 4.98958 3.49588 5.68389 3.26181C6.3782 3.02775 7.11047 2.9494 7.83458 3.03171C8.5587 3.11402 9.25898 3.35521 9.89133 3.74008C10.5237 4.12494 11.0744 4.64516 11.5088 5.26797C11.9451 4.64968 12.4964 4.13401 13.1283 3.75323C13.7602 3.37244 14.4591 3.13474 15.1812 3.055C15.9033 2.97527 16.6331 3.0552 17.3248 3.28982C18.0166 3.52443 18.6554 3.90867 19.2014 4.41848C19.7474 4.92829 20.1888 5.55271 20.4979 6.25264C20.807 6.95258 20.9772 7.71297 20.9979 8.48622C21.0185 9.25947 20.8891 10.0289 20.6179 10.7465C20.3466 11.464 19.9393 12.1141 19.4214 12.6562" stroke="#81B751" stroke-width="3" stroke-linecap="round" stroke-linejoin="round"/>
</svg>
