<svg width="27" height="26" viewBox="0 0 27 26" fill="none" xmlns="http://www.w3.org/2000/svg">
<g clip-path="url(#clip0_1015_100)">
<path d="M20.3176 6.39969H16.4701V5.31302C16.4701 4.1602 15.9296 3.0546 14.9675 2.23943C14.0055 1.42426 12.7006 0.966309 11.3401 0.966309C9.97952 0.966309 8.67468 1.42426 7.71262 2.23943C6.75056 3.0546 6.21008 4.1602 6.21008 5.31302V6.39969H2.36258C2.02244 6.39969 1.69623 6.51418 1.45571 6.71797C1.2152 6.92177 1.08008 7.19817 1.08008 7.48637V19.4398C1.08008 20.3044 1.48544 21.1336 2.20698 21.745C2.92853 22.3564 3.90716 22.6998 4.92758 22.6998H17.7526C18.773 22.6998 19.7516 22.3564 20.4732 21.745C21.1947 21.1336 21.6001 20.3044 21.6001 19.4398V7.48637C21.6001 7.19817 21.465 6.92177 21.2244 6.71797C20.9839 6.51418 20.6577 6.39969 20.3176 6.39969ZM8.77508 5.31302C8.77508 4.73661 9.04532 4.18381 9.52635 3.77622C10.0074 3.36864 10.6598 3.13966 11.3401 3.13966C12.0204 3.13966 12.6728 3.36864 13.1538 3.77622C13.6348 4.18381 13.9051 4.73661 13.9051 5.31302V6.39969H8.77508V5.31302ZM19.0351 19.4398C19.0351 19.728 18.9 20.0044 18.6594 20.2082C18.4189 20.412 18.0927 20.5265 17.7526 20.5265H4.92758C4.58744 20.5265 4.26123 20.412 4.02071 20.2082C3.7802 20.0044 3.64508 19.728 3.64508 19.4398V8.57305H6.21008V9.65972C6.21008 9.94793 6.3452 10.2243 6.58571 10.4281C6.82623 10.6319 7.15244 10.7464 7.49258 10.7464C7.83272 10.7464 8.15893 10.6319 8.39944 10.4281C8.63996 10.2243 8.77508 9.94793 8.77508 9.65972V8.57305H13.9051V9.65972C13.9051 9.94793 14.0402 10.2243 14.2807 10.4281C14.5212 10.6319 14.8474 10.7464 15.1876 10.7464C15.5277 10.7464 15.8539 10.6319 16.0944 10.4281C16.335 10.2243 16.4701 9.94793 16.4701 9.65972V8.57305H19.0351V19.4398Z" fill="#81B751" stroke="#81B751" stroke-width="0.5"/>
</g>
<defs>
<clipPath id="clip0_1015_100">
<rect width="27" height="26" fill="white"/>
</clipPath>
</defs>
</svg>
